<svg width="68" height="105" viewBox="0 0 68 105" fill="none" xmlns="http://www.w3.org/2000/svg">
<path d="M48.2052 0.840691C50.5464 0.154767 53.002 -0.112528 55.4307 0.0428752C55.8786 5.61347 54.1458 11.3804 50.5184 15.5633C46.8583 19.8479 41.3966 22.3427 35.8842 22.4881C34.9233 22.5227 33.9627 22.4792 33.006 22.3905C32.8919 17.4289 34.4064 12.4263 37.3281 8.47432C40.0176 4.79414 43.9058 2.08152 48.2052 0.840691Z" fill="#1DC46C"/>
<path d="M31.2018 24.9598C31.9945 24.2724 33.0973 23.7924 34.1528 24.0899C34.8114 24.2751 35.481 24.5353 35.9848 25.0153C39.7868 28.3518 43.5016 31.7835 47.1347 35.3011C51.9937 40.039 56.756 44.8997 61.0297 50.1796C66.6179 57.9509 68.7459 68.0916 66.7868 77.4576C65.3216 84.6922 61.4324 91.401 55.8927 96.2757C49.7068 101.782 41.4927 104.958 33.208 105C27.8064 104.86 22.4465 103.42 17.6984 100.845C12.968 98.291 8.84771 94.6102 5.79291 90.1878C2.70465 85.7491 0.712361 80.563 0 75.2056C4.62795 75.2029 9.25727 75.2099 13.8852 75.2029C14.8979 79.5824 17.4161 83.5869 20.9178 86.4032C24.9108 89.6525 30.1489 91.3084 35.2847 90.961C40.0662 90.6886 44.7301 88.6801 48.2042 85.3824C51.598 82.2132 53.8492 77.838 54.4081 73.2249C55.0389 68.2935 53.7358 63.1546 50.826 59.1238C48.0437 55.1953 43.824 52.3319 39.1614 51.1492C34.0822 49.8436 28.5122 50.5228 23.9257 53.0803C19.8664 55.3116 16.5846 58.9496 14.8592 63.2557C14.4872 64.1202 14.2395 65.0304 13.9626 65.9282C9.31533 65.9074 4.66665 65.9254 0.0179808 65.9197C0.7802 60.3244 2.93164 54.9297 6.22024 50.34C9.04692 46.4007 12.3219 42.8082 15.6949 39.3334C20.63 34.2983 25.8308 29.526 31.2018 24.9598Z" fill="#1DC46C"/>
</svg>
