<svg width="25" height="25" viewBox="0 0 25 25" fill="none" xmlns="http://www.w3.org/2000/svg">
<path d="M14.7904 12.5195L24.5249 2.78466C25.1584 2.15146 25.1584 1.12765 24.5249 0.494438C23.8917 -0.138771 22.8679 -0.138771 22.2347 0.494438L12.4999 10.2292L2.76536 0.494438C2.13185 -0.138771 1.10834 -0.138771 0.475129 0.494438C-0.158376 1.12765 -0.158376 2.15146 0.475129 2.78466L10.2096 12.5195L0.475129 22.2543C-0.158376 22.8875 -0.158376 23.9113 0.475129 24.5445C0.790696 24.8604 1.20562 25.019 1.62024 25.019C2.03487 25.019 2.4495 24.8604 2.76536 24.5445L12.4999 14.8097L22.2347 24.5445C22.5506 24.8604 22.9652 25.019 23.3798 25.019C23.7944 25.019 24.2091 24.8604 24.5249 24.5445C25.1584 23.9113 25.1584 22.8875 24.5249 22.2543L14.7904 12.5195Z" fill="#2BC36F"/>
</svg>
