<svg width="15" height="15" viewBox="0 0 15 15" fill="none" xmlns="http://www.w3.org/2000/svg">
<path d="M13.0865 1.09272C11.6295 -0.364241 9.25914 -0.364241 7.80217 1.09272L2.23837 6.65649C2.06667 6.8282 2.06667 7.10637 2.23837 7.27808C2.41008 7.44979 2.68826 7.44979 2.85997 7.27808L8.42374 1.71431C9.50377 0.635134 11.3849 0.635134 12.4649 1.71431C13.5788 2.82827 13.5788 4.6411 12.4649 5.75506L4.69583 13.6116C4.03131 14.2761 2.87356 14.2761 2.20908 13.6116C1.52353 12.9261 1.52353 11.8108 2.20908 11.1253L9.66736 3.57906C9.91632 3.3301 10.3507 3.3301 10.5997 3.57906C10.8568 3.83617 10.8568 4.25473 10.5997 4.51187L3.45267 11.7468C3.30443 11.8951 3.30443 12.2201 3.45267 12.3684C3.62438 12.5401 3.90255 12.5401 4.07426 12.3684L11.2213 5.13343C11.8214 4.53329 11.8214 3.55759 11.2213 2.95747C10.6401 2.37625 9.62611 2.3771 9.04577 2.95747L1.58749 10.5036C0.567192 11.5239 0.567192 13.2128 1.58749 14.2332C2.08588 14.7316 2.74823 15 3.45264 15C4.15706 15 4.81946 14.7316 5.31742 14.2332L13.0865 6.37662C14.5434 4.91966 14.5434 2.54966 13.0865 1.09272Z" fill="#325F93"/>
</svg>
