<svg width="27" height="20" viewBox="0 0 27 20" fill="none" xmlns="http://www.w3.org/2000/svg">
<circle cx="10" cy="10" r="9.5" stroke="#25A18E" stroke-opacity="0.2"/>
<g clip-path="url(#clip0_2589_3792)">
<path d="M26.7823 8.97463C26.7821 8.97441 26.7819 8.97415 26.7816 8.97393L22.9036 5.11456C22.613 4.82544 22.1431 4.82652 21.8539 5.11708C21.5648 5.40761 21.5659 5.87753 21.8564 6.16668L24.4602 8.7578H8.74219C8.33228 8.7578 8 9.09008 8 9.49999C8 9.9099 8.33228 10.2422 8.74219 10.2422H24.4601L21.8565 12.8333C21.5659 13.1225 21.5648 13.5924 21.854 13.8829C22.1432 14.1735 22.6131 14.1745 22.9036 13.8854L26.7817 10.0261C26.7819 10.0258 26.7821 10.0256 26.7824 10.0253C27.073 9.73523 27.0721 9.26379 26.7823 8.97463Z" fill="#25A18E"/>
</g>
<defs>
<clipPath id="clip0_2589_3792">
<rect width="19" height="19" fill="white" transform="translate(8)"/>
</clipPath>
</defs>
</svg>
