<svg width="46" height="70" viewBox="0 0 46 70" fill="none" xmlns="http://www.w3.org/2000/svg">
<path d="M32.7042 0.560461C34.265 0.103178 35.9021 -0.0750185 37.5212 0.0285835C37.8198 3.74232 36.6646 7.5869 34.2463 10.3756C31.8063 13.2319 28.1651 14.8951 24.4902 14.9921C23.8496 15.0152 23.2092 14.9862 22.5714 14.927C22.4953 11.6193 23.505 8.28423 25.4528 5.64955C27.2458 3.1961 29.8379 1.38768 32.7042 0.560461Z" fill="#1DC46C"/>
<path d="M21.3686 16.6399C21.8971 16.1816 22.6323 15.8616 23.3359 16.0599C23.775 16.1834 24.2214 16.3569 24.5573 16.6769C27.0919 18.9012 29.5684 21.189 31.9905 23.5341C35.2298 26.6927 38.4047 29.9332 41.2538 33.453C44.9793 38.6339 46.398 45.3944 45.0919 51.6384C44.1151 56.4615 41.5223 60.934 37.8292 64.1838C33.7053 67.8549 28.2292 69.9722 22.706 70C19.105 69.9068 15.5317 68.9469 12.3663 67.2297C9.2127 65.5273 6.46586 63.0735 4.42933 60.1252C2.37048 57.166 1.04229 53.7087 0.567383 50.1371C3.65269 50.1352 6.7389 50.1399 9.8242 50.1352C10.4993 53.055 12.1781 55.7246 14.5126 57.6021C17.1746 59.7683 20.6666 60.8722 24.0905 60.6407C27.2781 60.459 30.3874 59.1201 32.7035 56.9216C34.9661 54.8088 36.4668 51.892 36.8394 48.8166C37.26 45.529 36.3912 42.1031 34.4514 39.4158C32.5965 36.7969 29.7834 34.8879 26.675 34.0995C23.2889 33.2291 19.5755 33.6819 16.5178 35.3869C13.8117 36.8744 11.6238 39.2998 10.4735 42.1705C10.2255 42.7468 10.0604 43.3536 9.87581 43.9521C6.77761 43.9383 3.67849 43.9503 0.57937 43.9465C1.08752 40.2163 2.52181 36.6198 4.71421 33.56C6.59866 30.9338 8.78196 28.5388 11.0307 26.2222C14.3207 22.8655 17.7879 19.684 21.3686 16.6399Z" fill="#1DC46C"/>
</svg>
