<svg width="38" height="19" viewBox="0 0 38 19" fill="none" xmlns="http://www.w3.org/2000/svg">
<path d="M0.247845 8.82052L8.77038 0.297918C9.07652 -0.0595712 9.61455 -0.101245 9.97204 0.204975C10.3295 0.511122 10.3712 1.04915 10.065 1.40664C10.0364 1.43996 10.0054 1.47109 9.97204 1.49958L2.90686 8.57333H36.6478C37.1184 8.57333 37.5 8.95492 37.5 9.42564C37.5 9.89636 37.1184 10.2779 36.6478 10.2779H2.90686L9.97204 17.3431C10.3295 17.6492 10.3712 18.1872 10.065 18.5447C9.75876 18.9022 9.22081 18.9439 8.86332 18.6377C8.82999 18.6091 8.79887 18.578 8.77038 18.5447L0.247772 10.0221C-0.0826187 9.68982 -0.0826187 9.15296 0.247845 8.82052Z" fill="#2087A6"/>
</svg>
