<svg width="14" height="13" viewBox="0 0 14 13" fill="none" xmlns="http://www.w3.org/2000/svg">
<g clip-path="url(#clip0_402_3432)">
<path d="M9.18457 6.56731L13.5672 9.33794V3.67969L9.18457 6.56731Z" fill="#2BC36F"/>
<path d="M0.567383 3.67969V9.33794L4.95001 6.56731L0.567383 3.67969Z" fill="#2BC36F"/>
<path d="M12.7549 2.03125H1.37992C0.974484 2.03125 0.652734 2.3335 0.591797 2.72269L7.06742 6.98913L13.543 2.72269C13.4821 2.3335 13.1604 2.03125 12.7549 2.03125Z" fill="#2BC36F"/>
<path d="M8.44039 7.05745L7.2907 7.8147C7.22245 7.85939 7.14526 7.88133 7.06726 7.88133C6.98926 7.88133 6.91207 7.85939 6.84382 7.8147L5.69414 7.05664L0.593262 10.2831C0.655824 10.669 0.975949 10.9688 1.37976 10.9688H12.7548C13.1586 10.9688 13.4787 10.669 13.5413 10.2831L8.44039 7.05745Z" fill="#2BC36F"/>
</g>
<defs>
<clipPath id="clip0_402_3432">
<rect width="13" height="13" fill="white" transform="translate(0.567383)"/>
</clipPath>
</defs>
</svg>
