<svg width="16" height="15" viewBox="0 0 16 15" fill="none" xmlns="http://www.w3.org/2000/svg">
<path d="M8.0672 0C5.07174 0 2.63477 2.43697 2.63477 5.4324C2.63477 9.14982 7.49626 14.6072 7.70324 14.8377C7.89766 15.0543 8.23709 15.0539 8.43115 14.8377C8.63814 14.6072 13.4996 9.14982 13.4996 5.4324C13.4996 2.43697 11.0626 0 8.0672 0ZM8.0672 8.1656C6.56011 8.1656 5.33403 6.93949 5.33403 5.4324C5.33403 3.92531 6.56014 2.69924 8.0672 2.69924C9.57426 2.69924 10.8003 3.92534 10.8003 5.43243C10.8003 6.93952 9.57426 8.1656 8.0672 8.1656Z" fill="#2BC36F"/>
</svg>
