<svg width="15" height="14" viewBox="0 0 15 14" fill="none" xmlns="http://www.w3.org/2000/svg">
<g clip-path="url(#clip0_402_3445)">
<path d="M5.34865 8.06855L4.99627 8.41058C4.94651 8.45893 4.91846 8.52529 4.91846 8.59463V8.74059C4.91846 8.88224 5.03334 8.99713 5.17504 8.99713H7.27919C7.42106 8.99713 7.53586 8.88224 7.53586 8.74059V8.55166C7.53586 8.41001 7.42106 8.29508 7.27919 8.29508H6.11658L6.14863 8.2656C6.90848 7.53355 7.44628 6.95735 7.44628 6.20709C7.44628 5.60723 7.05643 5.00195 6.18516 5.00195C5.80482 5.00195 5.43233 5.12403 5.13624 5.34554C5.04009 5.41768 5.00671 5.54695 5.0562 5.65659L5.12093 5.79971C5.15235 5.86931 5.21299 5.9213 5.28673 5.94154C5.36002 5.96178 5.43912 5.94811 5.50167 5.90443C5.69206 5.77148 5.88805 5.704 6.0844 5.704C6.46652 5.704 6.66019 5.894 6.66019 6.26608C6.65509 6.77033 6.23683 7.22298 5.34865 8.06855Z" fill="#2BC36F"/>
<path d="M9.18377 5.06534C9.17694 5.06472 9.17001 5.06445 9.16318 5.06445H9.08483C9.00093 5.06445 8.92244 5.10543 8.8745 5.17406L7.30305 7.42291C7.27295 7.46602 7.25684 7.51733 7.25684 7.56989V7.75017C7.25684 7.89186 7.37163 8.00675 7.51333 8.00675H8.94814V8.74147C8.94814 8.88312 9.06294 8.998 9.20464 8.998H9.44963C9.59124 8.998 9.70626 8.88312 9.70626 8.74147V8.00675H9.9592C10.1009 8.00675 10.2158 7.89186 10.2158 7.75017V7.58357C10.2158 7.44196 10.1009 7.32703 9.9592 7.32703H9.70626V5.32103C9.70626 5.17943 9.59124 5.0645 9.44963 5.0645H9.20464C9.19762 5.0645 9.19061 5.06476 9.18377 5.06534ZM8.94814 7.32703H8.17338C8.37021 7.04124 8.70674 6.55076 8.94814 6.18826V7.32703Z" fill="#2BC36F"/>
<path d="M7.57689 12.8903C4.55726 12.8903 2.10055 10.4336 2.10055 7.41394C2.10055 4.5546 4.30347 2.20049 7.1011 1.95847V2.83142C7.1011 2.89344 7.13533 2.95043 7.19002 2.97955C7.21479 2.99278 7.24191 2.99926 7.26895 2.99926C7.30166 2.99926 7.33438 2.98968 7.36252 2.97072L9.34469 1.63898C9.39112 1.60782 9.41895 1.55557 9.41895 1.49964C9.41895 1.44375 9.39112 1.39146 9.34469 1.36029L7.36252 0.028553C7.31107 -0.00602779 7.24471 -0.00949032 7.18998 0.0197636C7.13529 0.0489287 7.10106 0.105927 7.10106 0.167897V0.845043C3.69078 1.08973 0.990723 3.94227 0.990723 7.41389C0.990723 11.0455 3.94532 14 7.57685 14C9.25821 14 10.8589 13.3665 12.084 12.2162L11.3244 11.4072C10.3058 12.3636 8.97495 12.8903 7.57689 12.8903Z" fill="#2BC36F"/>
<path d="M13.1988 3.9807C12.972 3.60963 12.7066 3.25925 12.4105 2.93945L11.5962 3.69344C11.8426 3.95957 12.0633 4.25108 12.2521 4.55974L13.1988 3.9807Z" fill="#2BC36F"/>
<path d="M13.0033 6.6703L14.103 6.52101C14.0444 6.08864 13.9421 5.66102 13.7991 5.25L12.751 5.6145C12.8697 5.95582 12.9546 6.31104 13.0033 6.6703Z" fill="#2BC36F"/>
<path d="M11.3545 2.01739C10.9974 1.76689 10.6141 1.55146 10.2154 1.37695L9.77051 2.39365C10.1018 2.53868 10.4204 2.71775 10.7172 2.92595L11.3545 2.01739Z" fill="#2BC36F"/>
<path d="M11.8076 10.8915L12.6645 11.5967C12.9417 11.2599 13.1861 10.8946 13.3909 10.5108L12.4118 9.98828C12.2415 10.3074 12.0383 10.6113 11.8076 10.8915Z" fill="#2BC36F"/>
<path d="M13.0373 7.83789C13.0097 8.19999 12.9458 8.55988 12.8477 8.90742L13.9156 9.20938C14.0339 8.79094 14.1107 8.35794 14.144 7.92246L13.0373 7.83789Z" fill="#2BC36F"/>
</g>
<defs>
<clipPath id="clip0_402_3445">
<rect width="14" height="14" fill="white" transform="translate(0.567383)"/>
</clipPath>
</defs>
</svg>
