<svg width="14" height="13" viewBox="0 0 14 13" fill="none" xmlns="http://www.w3.org/2000/svg">
<g clip-path="url(#clip0_402_3426)">
<path d="M13.2136 9.54069L11.3994 7.7265C10.7515 7.07857 9.64999 7.33777 9.39083 8.18005C9.19645 8.7632 8.54852 9.08717 7.96539 8.95756C6.66954 8.63359 4.92015 6.94899 4.59618 5.58835C4.40181 5.00519 4.79056 4.35727 5.37369 4.16291C6.21599 3.90374 6.47516 2.80227 5.82724 2.15435L4.01305 0.34016C3.49471 -0.113387 2.7172 -0.113387 2.26365 0.34016L1.0326 1.57122C-0.198459 2.86707 1.16218 6.30107 4.20743 9.34631C7.25267 12.3916 10.6867 13.817 11.9825 12.5211L13.2136 11.2901C13.6672 10.7717 13.6672 9.99424 13.2136 9.54069Z" fill="#2BC36F"/>
</g>
<defs>
<clipPath id="clip0_402_3426">
<rect width="13" height="13" fill="white" transform="translate(0.567383)"/>
</clipPath>
</defs>
</svg>
