<svg width="36" height="46" viewBox="0 0 36 46" fill="none" xmlns="http://www.w3.org/2000/svg">
<path d="M30.1754 1.91209C31.1619 1.88784 32.1495 2.0391 33.0825 2.35277C32.6774 4.57658 31.3996 6.65 29.5462 7.90707C27.6696 9.20044 25.2751 9.60669 23.1055 9.08942C22.7264 9.0029 22.3555 8.88585 21.9908 8.75155C22.463 6.8005 23.5758 5.00307 25.1293 3.76278C26.5637 2.60454 28.3658 1.94929 30.1754 1.91209Z" fill="white" fill-opacity="0.1"/>
<path d="M21.0963 10.1415C21.4911 9.95697 21.9904 9.88768 22.3889 10.1193C22.6376 10.2636 22.8829 10.4386 23.0377 10.6822C24.2356 12.4077 25.3881 14.1613 26.4983 15.9397C27.9797 18.3314 29.4087 20.761 30.5949 23.3024C32.0551 26.967 31.858 31.1887 30.0782 34.6621C28.723 37.3503 26.4361 39.5686 23.6696 40.8861C20.5738 42.3822 16.8967 42.7409 13.5194 41.8586C11.335 41.2176 9.30394 40.0695 7.641 38.5407C5.98296 37.0226 4.69153 35.1271 3.91163 33.0553C3.11983 30.9734 2.85258 28.7163 3.12438 26.5306C5.00878 27.0316 6.89271 27.5366 8.77757 28.0359C8.73056 29.8693 9.33582 31.7184 10.4661 33.2066C11.751 34.9185 13.7098 36.1385 15.8372 36.5589C17.8123 36.9704 19.9217 36.6859 21.6819 35.765C23.3959 34.886 24.7712 33.4083 25.4825 31.6535C26.2565 29.7812 26.2648 27.6174 25.5029 25.7155C24.7822 23.8676 23.3645 22.2829 21.5903 21.3117C19.6594 20.2469 17.3206 19.9099 15.1851 20.4189C13.2985 20.8566 11.581 21.9323 10.4269 23.4398C10.1848 23.7396 9.98854 24.071 9.78169 24.3943C7.89187 23.8819 5.99743 23.3847 4.10548 22.8782C5.00255 20.7589 6.44416 18.8692 8.26431 17.4197C9.8282 16.176 11.5382 15.1175 13.2758 14.1159C15.813 12.6697 18.4308 11.3558 21.0963 10.1415Z" fill="white" fill-opacity="0.1"/>
</svg>
